<?xml version="1.0" standalone="no"?><!DOCTYPE svg PUBLIC "-//W3C//DTD SVG 1.1//EN" "http://www.w3.org/Graphics/SVG/1.1/DTD/svg11.dtd"><svg width="100%" height="100%" viewBox="0 0 444 233" version="1.1" xmlns="http://www.w3.org/2000/svg" xmlns:xlink="http://www.w3.org/1999/xlink" xml:space="preserve" style="fill-rule:evenodd;clip-rule:evenodd;stroke-miterlimit:10;"><path d="M173.348,157.91l13.536,-2.605c0,1.345 0.024,2.532 0.073,3.559c0.049,1.027 0.178,2.146 0.385,3.356c0.208,1.211 0.489,2.201 0.844,2.971c0.354,0.771 0.856,1.419 1.504,1.945c0.648,0.526 1.412,0.788 2.293,0.788c2.641,0 3.961,-1.687 3.961,-5.062c0,-4.622 -2.604,-9.219 -7.813,-13.793l-4.145,-3.521c-1.32,-1.101 -2.372,-2.018 -3.155,-2.751c-0.783,-0.734 -1.705,-1.725 -2.769,-2.972c-1.064,-1.247 -1.896,-2.452 -2.495,-3.613c-0.599,-1.161 -1.113,-2.561 -1.54,-4.2c-0.429,-1.639 -0.642,-3.375 -0.642,-5.209c0,-5.356 1.699,-9.593 5.099,-12.711c3.398,-3.118 7.91,-4.676 13.536,-4.676c4.67,0 8.644,1.662 11.921,4.988c3.277,3.326 4.916,7.336 4.916,12.032l-0.037,0.477l0,1.1l-13.792,1.908c0,-0.269 0.018,-0.691 0.055,-1.266c0.036,-0.574 0.054,-1.045 0.054,-1.412c0,-0.88 -0.061,-1.724 -0.183,-2.531c-0.122,-0.807 -0.324,-1.614 -0.605,-2.421c-0.282,-0.807 -0.715,-1.449 -1.302,-1.926c-0.587,-0.477 -1.297,-0.715 -2.128,-0.715c-1.467,0 -2.568,0.575 -3.301,1.724c-0.734,1.15 -1.101,2.507 -1.101,4.071c0,1.371 0.214,2.654 0.642,3.853c0.428,1.198 1.076,2.317 1.944,3.356c0.868,1.04 1.669,1.901 2.403,2.586c0.733,0.685 1.712,1.522 2.935,2.512c1.222,0.991 2.09,1.719 2.604,2.183c1.883,1.663 3.472,3.223 4.769,4.677c1.296,1.456 2.518,3.1 3.668,4.934c1.149,1.835 2.011,3.815 2.586,5.943c0.575,2.127 0.862,4.426 0.862,6.896c0,4.622 -1.65,8.407 -4.952,11.353c-3.301,2.948 -7.312,4.421 -12.032,4.421c-3.057,0 -5.772,-0.563 -8.143,-1.688c-2.373,-1.124 -4.287,-2.653 -5.741,-4.585c-1.456,-1.932 -2.574,-4.072 -3.357,-6.419c-0.782,-2.348 -1.235,-4.866 -1.357,-7.557" style="fill:#fff;fill-rule:nonzero;"/><path d="M219.02,176.801l0,-56.051l-9.684,0l0,-9.978l32.537,0l0,9.978l-9.5,0l0,56.051l-13.353,0Z" style="fill:#fff;fill-rule:nonzero;"/><path d="M255.512,154.461l6.822,0l-3.338,-24.504l-3.484,24.504ZM238.784,176.801l14.27,-66.029l11.812,0l14.233,66.029l-13.169,0l-2.715,-14.123l-8.62,0l-2.568,14.123l-13.243,0Z" style="fill:#fff;fill-rule:nonzero;"/><path d="M280.568,154.755l0,-21.863c0,-15.602 6.383,-23.403 19.148,-23.403c2.69,0 5.081,0.36 7.172,1.082c2.091,0.721 3.845,1.718 5.264,2.989c1.417,1.273 2.585,2.837 3.503,4.696c0.917,1.858 1.577,3.876 1.981,6.052c0.404,2.177 0.605,4.574 0.605,7.19l0,5.686l-13.133,0l0,-6.089c0,-1.199 -0.024,-2.231 -0.073,-3.1c-0.049,-0.868 -0.178,-1.859 -0.385,-2.971c-0.208,-1.113 -0.489,-2.018 -0.844,-2.715c-0.355,-0.697 -0.88,-1.289 -1.577,-1.779c-0.697,-0.489 -1.535,-0.734 -2.513,-0.734c-3.864,0 -5.795,3.253 -5.795,9.758l0,28.502c0,6.481 1.931,9.721 5.795,9.721c1.15,0 2.116,-0.329 2.898,-0.99c0.782,-0.66 1.344,-1.596 1.688,-2.806c0.342,-1.211 0.574,-2.396 0.696,-3.558c0.123,-1.162 0.184,-2.488 0.184,-3.981l0,-6.786l13.059,0l0,5.576c-0.049,2.519 -0.257,4.842 -0.623,6.97c-0.368,2.127 -0.991,4.194 -1.872,6.199c-0.88,2.005 -1.998,3.699 -3.356,5.081c-1.358,1.381 -3.113,2.494 -5.264,3.338c-2.152,0.844 -4.622,1.265 -7.41,1.265c-2.861,0 -5.399,-0.409 -7.612,-1.229c-2.213,-0.819 -4.034,-1.92 -5.465,-3.301c-1.431,-1.382 -2.611,-3.082 -3.54,-5.099c-0.93,-2.017 -1.583,-4.139 -1.962,-6.364c-0.38,-2.226 -0.569,-4.671 -0.569,-7.337" style="fill:#fff;fill-rule:nonzero;"/><path d="M322.974,176.801l0,-66.029l13.353,0l0,25.055l10.344,-25.055l14.93,0l-15.373,31.437l16.364,34.592l-13.867,0l-12.398,-23.954l0,23.954l-13.353,0Z" style="fill:#fff;fill-rule:nonzero;"/><path d="M363.327,152.26l0,-41.488l13.353,0l0,39.454c0,2.348 0.012,4.053 0.036,5.117c0.024,1.064 0.085,2.36 0.183,3.888c0.098,1.529 0.27,2.599 0.514,3.21c0.244,0.612 0.58,1.273 1.009,1.981c0.427,0.71 0.984,1.174 1.669,1.394c0.684,0.22 1.516,0.33 2.495,0.33c0.977,0 1.809,-0.11 2.493,-0.33c0.685,-0.22 1.242,-0.679 1.669,-1.375c0.428,-0.697 0.765,-1.352 1.009,-1.963c0.245,-0.611 0.416,-1.669 0.514,-3.173c0.098,-1.504 0.159,-2.775 0.184,-3.815c0.024,-1.039 0.036,-2.72 0.036,-5.044l0,-0.22l0,-39.454l13.352,0l0,41.488c0,2.104 -0.061,4.012 -0.183,5.723c-0.122,1.712 -0.354,3.484 -0.697,5.319c-0.343,1.834 -0.807,3.454 -1.394,4.86c-0.587,1.406 -1.369,2.751 -2.347,4.035c-0.979,1.284 -2.134,2.343 -3.467,3.173c-1.333,0.832 -2.941,1.492 -4.824,1.981c-1.883,0.489 -3.998,0.734 -6.345,0.734c-2.349,0 -4.464,-0.245 -6.347,-0.734c-1.884,-0.489 -3.485,-1.149 -4.805,-1.981c-1.321,-0.83 -2.471,-1.889 -3.449,-3.173c-0.978,-1.284 -1.76,-2.629 -2.347,-4.035c-0.587,-1.406 -1.058,-3.026 -1.413,-4.86c-0.354,-1.835 -0.593,-3.607 -0.715,-5.319c-0.122,-1.711 -0.183,-3.619 -0.183,-5.723" style="fill:#ffe150;fill-rule:nonzero;"/><path d="M421.36,139.128c0.709,0 1.339,-0.042 1.89,-0.128c0.55,-0.086 4.294,-0.184 4.71,-0.294c0.415,-0.11 0.782,-0.312 1.101,-0.605c0.317,-0.294 0.58,-0.55 0.788,-0.77c0.208,-0.221 0.385,-0.581 0.532,-1.083c0.146,-0.501 0.257,-0.91 0.33,-1.229c0.074,-0.317 0.129,-0.831 0.165,-1.541c0.037,-0.708 0.055,-1.277 0.055,-1.705l0,-2l0,-0.55c0,-0.953 -0.006,-1.674 -0.018,-2.164c-0.013,-0.489 -0.055,-1.112 -0.128,-1.87c-0.074,-0.759 -0.19,-1.327 -0.349,-1.706c-0.159,-0.379 -0.391,-0.813 -0.697,-1.303c-0.306,-0.489 -0.678,-0.843 -1.119,-1.064c-0.44,-0.219 -0.997,-0.415 -1.669,-0.586c-0.672,-0.171 -4.71,-0.257 -5.591,-0.257l0,18.855ZM407.898,176.801l0,-66.029l19.218,0c5.747,0 9.929,1.602 12.545,4.806c2.617,3.204 3.926,7.838 3.926,13.902c0,2.984 -0.288,5.576 -0.862,7.777c-0.575,2.201 -1.375,4.017 -2.403,5.448c-1.027,1.43 -2.348,2.58 -3.962,3.448c-1.614,0.868 -3.363,1.479 -5.246,1.833c-1.883,0.356 -7.321,0.545 -9.791,0.569l0,28.246l-13.425,0Z" style="fill:#ffce00;fill-rule:nonzero;"/><path d="M15.075,98.109l0,86l68.73,34l0,-140l-68.73,20Z" style="fill:#ffce00;fill-rule:nonzero;"/><path d="M152.053,98.109l0,86l-68.73,34l0,-140l68.73,20Z" style="fill:#ffce00;fill-rule:nonzero;"/><path d="M32.528,54.925l0,63.78l50.972,25.216l0,-103.829l-50.972,14.833Z" style="fill:#fff;fill-rule:nonzero;"/><path d="M134.082,54.925l0,63.78l-50.972,25.216l0,-103.829l50.972,14.833Z" style="fill:#fff;fill-rule:nonzero;"/><path d="M117.874,25.077l0,43.011l-34.374,17.004l0,-70.017l34.374,10.002Z" style="fill:#ffce00;fill-rule:nonzero;stroke-width:1px;stroke:#fff;"/><path d="M48.693,25.077l0,43.011l34.374,17.004l0,-70.017l-34.374,10.002Z" style="fill:#ffce00;fill-rule:nonzero;stroke-width:1px;stroke:#fff;"/><path d="M83.109,143.727l0,-65.415l-0.043,0.012l0,6.768l-8.614,-4.261l-41.924,12.2l0,25.674l50.581,25.022Z" style="fill:#ffe150;fill-rule:nonzero;stroke-width:1px;stroke:#fff;"/><path d="M83.805,84.942l0,58.635l50.277,-24.871l0,-25.826l-41.76,-12.151l-8.517,4.213Z" style="fill:#ffe150;fill-rule:nonzero;stroke-width:1px;stroke:#fff;"/><path d="M74.453,80.831l8.614,-2.507l0,-38.105l-34.373,10.002l0,17.867l25.759,12.743Z" style="fill:#ffe150;fill-rule:nonzero;stroke-width:1px;stroke:#fff;"/><path d="M92.322,80.728l25.552,-12.64l0,-17.88l-34.374,-10.002l0,37.955l8.822,2.567Z" style="fill:#ffe150;fill-rule:nonzero;stroke-width:1px;stroke:#fff;"/><path d="M83.564,216.317l66.989,-33.139l0,-83.943l-17.971,-5.23l0,-37.954l-16.208,-4.716l0,-25.131l-33.087,-9.629l-0.006,0l-33.088,9.629l0,25.143l-16.165,4.704l0,38.106l-17.453,5.079l0,83.942l66.989,33.139ZM82.972,219.371l-69.397,-34.33l0,-88.057l17.453,-5.079l0,-38.106l16.165,-4.704l0,-25.143l35.66,-10.377l0.862,0l35.659,10.377l0,25.131l16.208,4.716l0,37.955l17.971,5.23l0,88.057l-69.397,34.33l-1.184,0Z" style="fill:#fff;"/></svg>